<?xml version="1.0" standalone="no"?>
<!DOCTYPE svg PUBLIC "-//W3C//DTD SVG 20010904//EN"
 "http://www.w3.org/TR/2001/REC-SVG-20010904/DTD/svg10.dtd">
<svg version="1.0" xmlns="http://www.w3.org/2000/svg"
 width="400.000000pt" height="400.000000pt" viewBox="0 0 400.000000 400.000000"
 preserveAspectRatio="xMidYMid meet">

<g transform="translate(0.000000,400.000000) scale(0.100000,-0.100000)"
fill="red" stroke="none">
<path d="M1952 3668 c-91 -211 -126 -359 -127 -533 0 -95 4 -129 19 -165 17
-39 19 -76 21 -283 2 -131 6 -241 9 -244 3 -4 6 5 7 18 0 22 1 23 9 4 5 -11 9
-37 9 -58 1 -24 7 -40 16 -43 10 -4 15 -20 15 -45 0 -28 4 -39 15 -39 11 0 15
-13 15 -52 0 -64 9 -100 22 -92 6 4 14 0 19 -7 5 -9 19 9 43 61 132 280 131
618 0 990 -59 163 -72 270 -56 446 6 71 10 130 8 132 -2 1 -22 -39 -44 -90z"/>
<path d="M2271 2927 c112 -92 207 -246 233 -382 8 -38 15 -64 15 -57 1 6 9 12
19 12 10 0 24 9 32 20 8 11 21 20 30 20 9 0 22 9 30 20 8 11 26 20 40 20 14 0
32 9 40 20 8 11 21 20 29 20 7 0 22 10 32 21 10 12 24 19 32 16 8 -3 14 3 14
15 1 11 -1 18 -4 14 -3 -3 -11 4 -17 16 -15 29 -136 120 -217 163 -83 43 -233
93 -307 102 l-57 6 56 -46z"/>
<path d="M1572 2537 c32 -172 10 -253 -103 -369 -147 -150 -276 -127 -374 67
l-35 70 0 -82 c0 -45 5 -106 11 -135 37 -175 162 -298 336 -330 94 -17 98 -13
190 174 84 168 93 189 124 272 15 39 16 52 6 59 -9 7 -9 10 1 14 20 8 14 43
-8 43 -18 0 -20 7 -21 63 -1 34 -4 52 -6 40 -7 -36 -21 -27 -28 17 -5 30 -11
40 -25 40 -15 0 -20 10 -25 48 -11 81 -16 102 -27 102 -6 0 -8 -9 -5 -20 3
-11 1 -23 -4 -26 -5 -3 -9 6 -9 20 0 14 -4 27 -9 30 -4 3 0 -41 11 -97z"/>
<path d="M2473 2208 c-26 -42 -143 -278 -176 -358 -9 -19 -18 -52 -22 -73 -4
-20 -11 -40 -16 -43 -23 -14 13 -74 45 -74 12 0 16 -10 18 -42 0 -24 0 -50 0
-58 -3 -29 9 -60 23 -60 7 0 17 -9 20 -20 3 -11 13 -20 20 -20 11 0 13 -9 10
-32 l-5 -33 12 35 11 35 11 -52 c20 -95 24 -65 5 39 -31 168 -25 218 40 311
90 132 224 197 310 152 41 -20 93 -85 129 -158 l32 -62 0 75 c0 95 -22 200
-57 268 -55 109 -189 197 -318 209 l-64 6 -28 -45z"/>
<path d="M1987 1876 c-4 -10 -4 -22 -1 -27 3 -5 0 -8 -7 -7 -16 4 -73 -136
-100 -247 -17 -71 -22 -121 -22 -240 -1 -176 23 -318 80 -479 76 -218 88 -314
71 -546 l-7 -95 29 60 c70 146 134 368 145 505 7 88 -4 187 -30 270 -14 45
-27 377 -13 342 5 -13 7 -10 7 10 1 14 4 33 7 42 4 11 1 16 -10 16 -9 0 -16 6
-16 14 0 8 -6 17 -12 20 -10 5 -10 7 0 12 14 7 16 34 2 34 -5 0 -10 18 -10 40
0 33 -3 40 -20 40 -13 0 -20 7 -20 20 0 11 5 20 10 20 20 0 10 38 -12 45 -14
4 -18 8 -10 12 7 3 12 24 12 54 0 42 -3 49 -20 49 -15 0 -20 7 -20 28 0 19 -3
23 -9 13 -7 -11 -9 -11 -13 0 -3 9 -6 8 -11 -5z"/>
<path d="M2280 1620 c0 -11 7 -20 15 -20 8 0 15 9 15 20 0 11 -7 20 -15 20 -8
0 -15 -9 -15 -20z"/>
<path d="M1432 1474 c-18 -7 -32 -17 -32 -23 0 -5 -19 -11 -42 -13 -33 -2 -43
-7 -42 -20 1 -10 -8 -19 -23 -23 -14 -3 -32 -12 -39 -20 -8 -8 -21 -12 -29 -9
-8 3 -22 -1 -31 -10 -8 -9 -20 -13 -26 -10 -27 17 30 -50 75 -89 114 -97 250
-166 407 -206 130 -33 132 -31 43 57 -92 89 -151 183 -184 294 -13 43 -29 79
-35 82 -5 2 -24 -2 -42 -10z"/>
</g>
</svg>
