<?xml version="1.0" standalone="no"?>
<!DOCTYPE svg PUBLIC "-//W3C//DTD SVG 20010904//EN"
 "http://www.w3.org/TR/2001/REC-SVG-20010904/DTD/svg10.dtd">
<svg version="1.0" xmlns="http://www.w3.org/2000/svg"
 width="100.000000pt" height="100.000000pt" viewBox="0 0 100.000000 100.000000"
 preserveAspectRatio="xMidYMid meet">

<g transform="translate(0.000000,100.000000) scale(0.100000,-0.100000)"
fill="#ED1E24" stroke="none">
<path d="M388 984 c-251 -60 -421 -310 -380 -556 45 -272 297 -460 560 -420
221 35 386 198 424 420 57 336 -270 637 -604 556z m212 -240 c55 -32 80 -77
80 -143 0 -67 -24 -112 -69 -132 -17 -8 -31 -18 -31 -22 0 -5 34 -53 75 -108
41 -54 75 -101 75 -104 0 -3 -33 -5 -74 -5 l-74 0 -69 101 -68 101 -3 -101 -3
-102 -62 3 -62 3 -3 255 c-1 140 0 261 3 269 4 11 30 13 128 9 100 -3 129 -8
157 -24z"/>
<path d="M440 595 c0 -36 3 -65 8 -65 4 1 36 16 72 34 l65 34 -69 31 c-38 17
-70 31 -72 31 -2 0 -4 -29 -4 -65z"/>
</g>
</svg>
